<?xml version="1.0" encoding="UTF-8" standalone="no"?>
<!-- Created with Inkscape (http://www.inkscape.org/) -->

<svg
   xmlns:dc="http://purl.org/dc/elements/1.1/"
   xmlns:cc="http://creativecommons.org/ns#"
   xmlns:rdf="http://www.w3.org/1999/02/22-rdf-syntax-ns#"
   xmlns:svg="http://www.w3.org/2000/svg"
   xmlns="http://www.w3.org/2000/svg"
   xmlns:xlink="http://www.w3.org/1999/xlink"
   xmlns:sodipodi="http://sodipodi.sourceforge.net/DTD/sodipodi-0.dtd"
   xmlns:inkscape="http://www.inkscape.org/namespaces/inkscape"
   width="116.78136mm"
   height="53.132523mm"
   viewBox="0 0 116.78137 53.132523"
   version="1.1"
   id="svg1034"
   inkscape:version="0.92.4 5da689c313, 2019-01-14"
   sodipodi:docname="rustython.svg">
  <defs
     id="defs1028">
    <linearGradient
       x1="26.648937"
       y1="20.603781"
       x2="135.66525"
       y2="114.39767"
       id="linearGradient3210"
       xlink:href="#linearGradient4689"
       gradientUnits="userSpaceOnUse"
       gradientTransform="matrix(0.562541,0,0,0.567972,33.698482,31.68078)" />
    <linearGradient
       id="linearGradient4689">
      <stop
         id="stop4691"
         style="stop-color:#5a9fd4;stop-opacity:1"
         offset="0" />
      <stop
         id="stop4693"
         style="stop-color:#306998;stop-opacity:1"
         offset="1" />
    </linearGradient>
    <linearGradient
       x1="150.96111"
       y1="192.35176"
       x2="112.03144"
       y2="137.27299"
       id="linearGradient3212"
       xlink:href="#linearGradient4671"
       gradientUnits="userSpaceOnUse"
       gradientTransform="matrix(0.562541,0,0,0.567972,33.698482,31.68078)" />
    <linearGradient
       id="linearGradient4671">
      <stop
         id="stop4673"
         style="stop-color:#ffd43b;stop-opacity:1"
         offset="0" />
      <stop
         id="stop4675"
         style="stop-color:#ffe873;stop-opacity:1"
         offset="1" />
    </linearGradient>
    <radialGradient
       cx="61.518883"
       cy="132.28575"
       r="29.036913"
       fx="61.518883"
       fy="132.28575"
       id="radialGradient1480"
       xlink:href="#linearGradient2795"
       gradientUnits="userSpaceOnUse"
       gradientTransform="matrix(0,-0.06348597,0.27904757,1.0031798e-7,16.947269,159.81138)" />
    <linearGradient
       id="linearGradient2795">
      <stop
         id="stop2797"
         style="stop-color:#b8b8b8;stop-opacity:0.49803922"
         offset="0" />
      <stop
         id="stop2799"
         style="stop-color:#7f7f7f;stop-opacity:0"
         offset="1" />
    </linearGradient>
  </defs>
  <sodipodi:namedview
     id="base"
     pagecolor="#ffffff"
     bordercolor="#666666"
     borderopacity="1.0"
     inkscape:pageopacity="0.0"
     inkscape:pageshadow="2"
     inkscape:zoom="1.979899"
     inkscape:cx="266.89571"
     inkscape:cy="88.570572"
     inkscape:document-units="mm"
     inkscape:current-layer="layer1"
     showgrid="false"
     fit-margin-top="3"
     fit-margin-left="3"
     fit-margin-right="3"
     fit-margin-bottom="3"
     inkscape:window-width="1920"
     inkscape:window-height="1030"
     inkscape:window-x="0"
     inkscape:window-y="0"
     inkscape:window-maximized="1" />
  <metadata
     id="metadata1031">
    <rdf:RDF>
      <cc:Work
         rdf:about="">
        <dc:format>image/svg+xml</dc:format>
        <dc:type
           rdf:resource="http://purl.org/dc/dcmitype/StillImage" />
        <dc:title></dc:title>
      </cc:Work>
    </rdf:RDF>
  </metadata>
  <g
     inkscape:label="Layer 1"
     inkscape:groupmode="layer"
     id="layer1"
     transform="translate(-28.823092,-110.07202)">
    <path
       inkscape:connector-curvature="0"
       d="m 63.368028,155.90581 a 9.5067379,1.8434346 0 1 1 -19.013475,0 9.5067379,1.8434346 0 1 1 19.013475,0 z"
       id="path1894"
       style="opacity:0.44382019;fill:url(#radialGradient1480);fill-opacity:1;fill-rule:nonzero;stroke:none;stroke-width:0.20395912" />
    <g
       transform="matrix(0.26458333,0,0,0.26458333,34.778237,120.42575)"
       id="g3179">
      <path
         inkscape:connector-curvature="0"
         d="m 210.63122,83.265743 c 0,9.92254 -0.9942,16.794237 -2.9826,20.615097 -1.99816,3.82086 -5.79952,6.8717 -11.41385,9.14277 -4.55189,1.79346 -9.47417,2.76817 -14.75709,2.93387 l -1.47181,-5.61432 c 5.37064,-0.73103 9.15252,-1.46207 11.34561,-2.1931 4.31796,-1.46206 7.28108,-3.70389 8.90884,-6.706 1.30611,-2.446517 1.94942,-7.115367 1.94942,-14.026057 v -2.3198 c -6.09193,2.76817 -12.47628,4.14251 -19.15303,4.14251 -4.38619,0 -8.25579,-1.37434 -11.58929,-4.14251 -3.74289,-3.01186 -5.61433,-6.83272 -5.61433,-11.46258 v -37.07793 l 8.90884,-3.05084 v 37.3216 c 0,3.98656 1.28662,7.0569 3.85985,9.21101 2.57323,2.1541 5.90674,3.18729 9.99077,3.10932 4.08403,-0.08773 8.46047,-1.66676 13.10983,-4.75658 v -43.54025 h 8.90884 z"
         id="path48"
         style="fill:#646464;fill-opacity:1" />
      <path
         inkscape:connector-curvature="0"
         d="m 245.40884,88.997033 c -1.06243,0.08772 -2.03714,0.12671 -2.93387,0.12671 -5.03925,0 -8.96733,-1.19889 -11.77449,-3.60642 -2.79742,-2.40753 -4.20099,-5.73129 -4.20099,-9.97127 v -35.08953 h -6.10168 v -5.60457 h 6.10168 v -14.88381 l 8.89909,-3.16781 v 18.05162 h 10.01026 v 5.60457 h -10.01026 v 34.84585 c 0,3.34325 0.89673,5.71179 2.6902,7.09588 1.54004,1.14041 3.98656,1.79347 7.32006,1.95917 z"
         id="path50"
         style="fill:#646464;fill-opacity:1" />
      <path
         inkscape:connector-curvature="0"
         d="m 299.34923,88.266003 h -8.90884 v -34.38773 c 0,-3.49921 -0.81876,-6.51106 -2.44651,-9.02581 -1.88119,-2.84615 -4.49342,-4.26923 -7.84641,-4.26923 -4.08404,0 -9.19152,2.15411 -15.32242,6.46233 v 41.22044 H 255.9162 V 6.0687929 l 8.90885,-2.80716 V 40.700203 c 5.6923,-4.14251 11.91093,-6.21864 18.66566,-6.21864 4.7176,0 8.53846,1.58877 11.46258,4.75658 2.93388,3.1678 4.39594,7.11537 4.39594,11.83296 z"
         id="path52"
         style="fill:#646464;fill-opacity:1" />
      <path
         inkscape:connector-curvature="0"
         d="m 346.70059,60.525783 c 0,-5.59483 -1.06242,-10.21495 -3.17755,-13.87011 -2.51474,-4.45442 -6.42332,-6.80347 -11.70625,-7.04715 -9.76658,0.56534 -14.64012,7.56375 -14.64012,20.97574 0,6.15042 1.01369,11.28713 3.06057,15.41015 2.61223,5.25368 6.53056,7.84641 11.755,7.75869 9.80557,-0.07798 14.70835,-7.81717 14.70835,-23.22732 z m 9.75685,0.05848 c 0,7.96338 -2.03714,14.5914 -6.10168,19.88407 -4.47391,5.92623 -10.65357,8.89909 -18.53897,8.89909 -7.81716,0 -13.90909,-2.97286 -18.30503,-8.89909 -3.98656,-5.29267 -5.97497,-11.92069 -5.97497,-19.88407 0,-7.48576 2.15411,-13.78238 6.46232,-18.90935 4.5519,-5.43888 10.53661,-8.16806 17.93464,-8.16806 7.39805,0 13.42174,2.72918 18.06137,8.16806 4.3082,5.12697 6.46232,11.42359 6.46232,18.90935 z"
         id="path54"
         style="fill:#646464;fill-opacity:1" />
      <path
         inkscape:connector-curvature="0"
         d="m 407.53218,88.266003 h -8.90884 v -36.33715 c 0,-3.98656 -1.19889,-7.09588 -3.59667,-9.33772 -2.39779,-2.23208 -5.59483,-3.31401 -9.58139,-3.22628 -4.23023,0.07798 -8.25579,1.46206 -12.07664,4.14251 v 44.75864 h -8.90884 v -45.86006 c 5.12697,-3.73313 9.84456,-6.16991 14.15276,-7.31032 4.06455,-1.06243 7.65148,-1.58877 10.74131,-1.58877 2.11512,0 4.10352,0.20469 5.97496,0.61406 3.49921,0.80901 6.34535,2.31006 8.53845,4.51291 2.44651,2.43677 3.6649,5.3609 3.6649,8.78212 z"
         id="path56"
         style="fill:#646464;fill-opacity:1" />
    </g>
    <path
       inkscape:connector-curvature="0"
       d="m 53.914888,118.62506 a 1.4008955,1.4008955 0 0 1 2.801791,0 1.4008955,1.4008955 0 0 1 -2.801791,0 m -16.712033,12.68377 a 1.4008955,1.4008955 0 0 1 2.801791,0 1.4008955,1.4008955 0 0 1 -2.801791,0 m 33.42361,0.0654 a 1.400898,1.400898 0 0 1 2.801796,0 1.400898,1.400898 0 0 1 -2.801796,0 m -29.368316,1.91924 c 0.644557,-0.28621 0.935733,-1.04165 0.649515,-1.68756 l -0.621569,-1.40538 h 2.444356 v 11.01785 h -4.93153 a 17.247509,17.247509 0 0 1 -0.558465,-6.58393 z m 10.225005,0.2709 v -3.24758 h 5.820838 c 0.300643,0 2.122978,0.34753 2.122978,1.71011 0,1.13136 -1.397744,1.53702 -2.547124,1.53702 z m -7.946972,17.48551 a 1.4008953,1.4008953 0 0 1 2.80179,0 1.4008953,1.4008953 0 0 1 -2.80179,0 m 20.756959,0.0654 a 1.4008955,1.4008955 0 0 1 2.801788,0 1.4008955,1.4008955 0 0 1 -2.801788,0 m 0.43316,-3.17681 c -0.690077,-0.14786 -1.368896,0.29118 -1.516734,0.98262 l -0.703152,3.28136 a 17.247509,17.247509 0 0 1 -14.383519,-0.069 l -0.7027,-3.28139 c -0.147836,-0.69053 -0.826655,-1.13046 -1.516284,-0.98216 l -2.896896,0.62203 a 17.247509,17.247509 0 0 1 -1.497805,-1.76558 h 14.095498 c 0.159557,0 0.265931,-0.0288 0.265931,-0.17396 v -4.98609 c 0,-0.14514 -0.106367,-0.17396 -0.265931,-0.17396 h -4.122458 v -3.16059 h 4.458709 c 0.407009,0 2.176161,0.11635 2.741837,2.37763 0.177139,0.69551 0.566129,2.95776 0.832068,3.6821 0.265034,0.81221 1.344101,2.43487 2.493933,2.43487 h 7.277628 a 17.247509,17.247509 0 0 1 -1.597424,1.84895 z m 7.827071,-13.16472 a 17.247509,17.247509 0 0 1 0.03648,2.99426 h -1.769596 c -0.177147,0 -0.248357,0.11636 -0.248357,0.28982 v 0.81269 c 0,1.91293 -1.078622,2.32896 -2.023816,2.43489 -0.900127,0.10136 -1.898066,-0.37682 -2.021118,-0.92764 -0.530964,-2.98658 -1.415763,-3.62437 -2.813054,-4.72643 1.733987,-1.10117 3.538296,-2.72562 3.538296,-4.89998 0,-2.3479 -1.609588,-3.82679 -2.706681,-4.55201 -1.539274,-1.0146 -3.243517,-1.21789 -3.703272,-1.21789 H 42.540951 a 17.247509,17.247509 0 0 1 9.649412,-5.44582 l 2.157234,2.26316 c 0.487699,0.51068 1.295418,0.52961 1.805659,0.0414 l 2.413702,-2.30869 a 17.247509,17.247509 0 0 1 11.807548,8.40944 l -1.652408,3.73212 c -0.285321,0.64591 0.0061,1.40134 0.649962,1.68756 z m 4.121103,0.0603 -0.05633,-0.57695 1.701989,-1.58749 c 0.346169,-0.32273 0.216802,-0.97225 -0.225824,-1.13723 l -2.175716,-0.81356 -0.170379,-0.56162 1.357177,-1.88499 c 0.276753,-0.38312 0.02253,-0.99477 -0.44353,-1.0714 l -2.294261,-0.37322 -0.275848,-0.51519 0.964132,-2.1162 c 0.197419,-0.43092 -0.169475,-0.98217 -0.643654,-0.96414 l -2.328521,0.0811 -0.367798,-0.44623 0.535027,-2.26811 c 0.108175,-0.46065 -0.359244,-0.92852 -0.819896,-0.82035 l -2.267666,0.53457 -0.447131,-0.3678 0.08158,-2.3285 c 0.01801,-0.47148 -0.53367,-0.83973 -0.963672,-0.64411 l -2.115773,0.96458 -0.515191,-0.27629 -0.374114,-2.29473 c -0.07572,-0.46516 -0.687824,-0.71937 -1.070958,-0.44352 l -1.88634,1.35716 -0.560718,-0.17001 -0.81358,-2.17617 c -0.164976,-0.44352 -0.814938,-0.57107 -1.136765,-0.22672 l -1.587498,1.70335 -0.576944,-0.0564 -1.226008,-1.98099 c -0.247912,-0.40116 -0.911846,-0.40116 -1.158851,0 l -1.226009,1.98099 -0.577396,0.0564 -1.587951,-1.70335 c -0.321828,-0.34435 -0.971793,-0.2168 -1.136762,0.22672 l -0.813584,2.17617 -0.561169,0.17001 -1.885892,-1.35716 c -0.383126,-0.27676 -0.995681,-0.0216 -1.071405,0.44352 l -0.374112,2.29473 -0.515195,0.27629 -2.115766,-0.96458 c -0.430006,-0.19652 -0.981709,0.17263 -0.963679,0.64411 l 0.08114,2.3285 -0.447133,0.3678 -2.267666,-0.53457 c -0.460655,-0.10732 -0.92852,0.3597 -0.820343,0.82035 l 0.534125,2.26811 -0.366902,0.44623 -2.328516,-0.0811 c -0.469667,-0.0136 -0.839724,0.53322 -0.644104,0.96414 l 0.96458,2.1162 -0.276302,0.51519 -2.29426,0.37322 c -0.466063,0.0756 -0.718476,0.68828 -0.443527,1.0714 l 1.357175,1.88499 -0.170381,0.56162 -2.176164,0.81358 c -0.441725,0.1649 -0.571086,0.8145 -0.22582,1.13722 l 1.702439,1.5875 -0.05633,0.57695 -1.980545,1.22599 c -0.401157,0.24793 -0.401157,0.91187 0,1.15887 l 1.980545,1.22601 0.05633,0.57694 -1.702439,1.58796 c -0.345266,0.32182 -0.215905,0.97088 0.22582,1.13676 l 2.176164,0.81357 0.170381,0.56163 -1.357175,1.88543 c -0.275852,0.38404 -0.02209,0.99613 0.443979,1.07095 l 2.293808,0.37323 0.276302,0.51609 -0.96458,2.11531 c -0.196521,0.43001 0.174437,0.98306 0.644104,0.96414 l 2.327615,-0.0816 0.367803,0.44714 -0.534125,2.26857 c -0.108177,0.45974 0.359688,0.92671 0.820343,0.81854 l 2.267666,-0.53413 0.447133,0.3669 -0.08114,2.32897 c -0.01803,0.47147 0.533673,0.84017 0.963679,0.64366 l 2.115766,-0.96414 0.515195,0.2763 0.374112,2.29336 c 0.07572,0.46697 0.688279,0.71938 1.071405,0.44443 l 1.884989,-1.35807 0.561621,0.17083 0.813583,2.17526 c 0.164975,0.44172 0.814936,0.57198 1.136763,0.22581 l 1.58795,-1.70244 0.577398,0.0578 1.226008,1.98054 c 0.247004,0.39936 0.910946,0.40027 1.15885,0 l 1.226008,-1.98054 0.576943,-0.0578 1.587507,1.70244 c 0.321819,0.34617 0.971788,0.21591 1.136756,-0.22581 l 0.813581,-2.17526 0.561622,-0.17083 1.885444,1.35807 c 0.383126,0.27495 0.995226,0.0216 1.07095,-0.44443 l 0.374113,-2.29336 0.5152,-0.2763 2.115765,0.96414 c 0.430002,0.19651 0.980802,-0.1713 0.96368,-0.64366 l -0.08114,-2.32897 0.44668,-0.3669 2.267665,0.53413 c 0.460652,0.10817 0.928071,-0.3588 0.819896,-0.81854 l -0.53413,-2.26857 0.366901,-0.44714 2.328521,0.0816 c 0.469665,0.0189 0.841073,-0.53413 0.643654,-0.96414 l -0.964132,-2.11531 0.275848,-0.51609 2.294261,-0.37323 c 0.466968,-0.0748 0.720283,-0.68691 0.44353,-1.07095 l -1.357176,-1.88543 0.170379,-0.56163 2.175716,-0.81357 c 0.442625,-0.16593 0.571992,-0.81494 0.225823,-1.13676 l -1.701989,-1.58796 0.05633,-0.57694 1.980543,-1.22601 c 0.401153,-0.247 0.401605,-0.91094 4.52e-4,-1.15887 z"
       id="path1730"
       style="stroke-width:0.45073846" />
    <g
       transform="matrix(0.25536527,0,0,0.25536527,28.762365,111.20961)"
       id="g3206">
      <path
         inkscape:connector-curvature="0"
         d="m 103.60839,43.38407 c -4.583656,0.0213 -8.960942,0.412218 -12.812503,1.09375 -11.346216,2.004504 -13.406249,6.200102 -13.40625,13.9375 v 10.21875 h 26.812503 v 3.40625 h -26.812503 -10.0625 c -7.792459,0 -14.615759,4.683717 -16.75,13.59375 -2.46182,10.212966 -2.571015,16.58602 0,27.25 1.905928,7.93785 6.457543,13.59375 14.25,13.59375 h 9.21875 v -12.25 c 0,-8.8499 7.657144,-16.656248 16.75,-16.65625 h 26.781253 c 7.45495,0 13.40625,-6.138164 13.40625,-13.625 V 58.41532 c 0,-7.266339 -6.12998,-12.724778 -13.40625,-13.9375 -4.60599,-0.766725 -9.3851,-1.115048 -13.96875,-1.09375 z m -14.500003,8.21875 c 2.769547,0 5.03125,2.298646 5.03125,5.125 -2e-6,2.816336 -2.261703,5.09375 -5.03125,5.09375 -2.779476,-1e-6 -5.03125,-2.277415 -5.03125,-5.09375 -10e-7,-2.826353 2.251774,-5.125 5.03125,-5.125 z"
         id="path1948"
         style="fill:url(#linearGradient3210);fill-opacity:1" />
      <path
         inkscape:connector-curvature="0"
         d="m 134.32714,72.04032 v 11.90625 c 0,9.230755 -7.8259,17 -16.75,17 H 90.795887 c -7.335833,0 -13.406249,6.27848 -13.40625,13.625 v 25.53125 c 0,7.26634 6.318588,11.54032 13.40625,13.625 8.487331,2.49561 16.626233,2.94663 26.781253,0 6.75015,-1.95439 13.40625,-5.88761 13.40625,-13.625 v -10.21875 h -26.78125 v -3.40625 h 26.78125 13.40625 c 7.79246,0 10.69625,-5.43541 13.40624,-13.59375 2.79933,-8.39889 2.68022,-16.475776 0,-27.25 -1.92578,-7.757441 -5.60387,-13.59375 -13.40624,-13.59375 z m -15.0625,64.65625 c 2.77948,0 5.03125,2.27742 5.03125,5.09375 -1e-5,2.82635 -2.25178,5.125 -5.03125,5.125 -2.76955,0 -5.03125,-2.29865 -5.03125,-5.125 0,-2.81633 2.26169,-5.09375 5.03125,-5.09375 z"
         id="path1950"
         style="fill:url(#linearGradient3212);fill-opacity:1" />
    </g>
    <path
       inkscape:connector-curvature="0"
       d="m 41.286091,130.20053 h 2.444356 v 11.01785 h -4.93153 m 0,0 c -0.608731,-2.13814 -0.798366,-4.3738 -0.558465,-6.58393 l 3.017693,-1.34098 c 0.644557,-0.28621 0.935733,-1.04165 0.649515,-1.68756 l -0.621569,-1.40538 m 10.197059,3.36384 v -3.24758 h 5.820838 c 0.300643,0 2.122979,0.34753 2.122979,1.71011 0,1.13136 -1.397745,1.53702 -2.547125,1.53702 z m -9.973943,13.16198 h 14.095498 c 0.159557,0 0.265931,-0.0288 0.265931,-0.17396 v -4.98609 c 0,-0.14514 -0.106367,-0.17396 -0.265931,-0.17396 h -4.122458 v -3.16059 h 4.458709 c 0.407009,0 2.176161,0.11635 2.741838,2.37763 0.177139,0.69551 0.566129,2.95776 0.832067,3.6821 0.265033,0.81221 1.344102,2.43487 2.493934,2.43487 h 7.277626 m 3.303428,-8.95834 h -1.769594 c -0.177149,0 -0.248359,0.11636 -0.248359,0.28982 v 0.81269 c 0,1.91293 -1.078622,2.32896 -2.023814,2.43489 -0.900128,0.10136 -1.898068,-0.37682 -2.02112,-0.92764 -0.530963,-2.98658 -1.415762,-3.62437 -2.813053,-4.72643 1.733987,-1.10117 3.538297,-2.72562 3.538297,-4.89998 0,-2.3479 -1.60959,-3.82679 -2.706682,-4.55201 -1.539275,-1.0146 -3.243517,-1.21789 -3.703273,-1.21789 h -18.3013"
       id="path1730-7"
       style="fill:none;stroke:#000000;stroke-width:0.45073846;stroke-opacity:1"
       sodipodi:nodetypes="cccccccccccsscccssssccsccsccssscccscsc" />
  </g>
</svg>
