<?xml version="1.0" encoding="UTF-8" standalone="no"?>
<!-- Created with Inkscape (http://www.inkscape.org/) -->

<svg
   xmlns:dc="http://purl.org/dc/elements/1.1/"
   xmlns:cc="http://creativecommons.org/ns#"
   xmlns:rdf="http://www.w3.org/1999/02/22-rdf-syntax-ns#"
   xmlns:svg="http://www.w3.org/2000/svg"
   xmlns="http://www.w3.org/2000/svg"
   xmlns:sodipodi="http://sodipodi.sourceforge.net/DTD/sodipodi-0.dtd"
   xmlns:inkscape="http://www.inkscape.org/namespaces/inkscape"
   width="89.668129mm"
   height="36.360077mm"
   viewBox="0 0 89.668129 36.360077"
   version="1.1"
   id="svg8"
   inkscape:version="0.92.4 5da689c313, 2019-01-14"
   sodipodi:docname="rust-logo-with-text.svg">
  <defs
     id="defs2" />
  <sodipodi:namedview
     id="base"
     pagecolor="#ffffff"
     bordercolor="#666666"
     borderopacity="1.0"
     inkscape:pageopacity="0.0"
     inkscape:pageshadow="2"
     inkscape:zoom="1.4"
     inkscape:cx="286.45647"
     inkscape:cy="71.313573"
     inkscape:document-units="mm"
     inkscape:current-layer="layer1"
     showgrid="false"
     fit-margin-top="0"
     fit-margin-left="0"
     fit-margin-right="4"
     fit-margin-bottom="0"
     inkscape:window-width="1920"
     inkscape:window-height="1030"
     inkscape:window-x="0"
     inkscape:window-y="0"
     inkscape:window-maximized="1" />
  <metadata
     id="metadata5">
    <rdf:RDF>
      <cc:Work
         rdf:about="">
        <dc:format>image/svg+xml</dc:format>
        <dc:type
           rdf:resource="http://purl.org/dc/dcmitype/StillImage" />
        <dc:title></dc:title>
      </cc:Work>
    </rdf:RDF>
  </metadata>
  <g
     inkscape:label="Layer 1"
     inkscape:groupmode="layer"
     id="layer1"
     transform="translate(-23.964211,-11.77978)">
    <g
       aria-label="Rust"
       style="font-style:normal;font-weight:normal;font-size:10.58333302px;line-height:1.25;font-family:sans-serif;letter-spacing:0px;word-spacing:0px;fill:#000000;fill-opacity:1;stroke:none;stroke-width:0.26458332"
       id="text817">
      <path
         d="M 76.541203,30.862049 H 74.465106 V 36.52766 H 72.621842 V 23.159146 h 3.511903 q 2.502959,0 3.783542,0.950736 1.299986,0.950736 1.299986,2.832806 0,1.397 -0.717903,2.270125 -0.717902,0.873125 -2.173111,1.319389 l 3.608917,5.995458 h -2.192514 z m -0.21343,-1.416403 q 1.455208,0 2.192514,-0.582083 0.737305,-0.601486 0.737305,-1.920875 0,-1.241778 -0.756708,-1.785056 -0.737305,-0.56268 -2.386542,-0.56268 h -1.649236 v 4.850694 z"
         style="font-style:normal;font-variant:normal;font-weight:normal;font-stretch:normal;font-size:19.40277863px;font-family:'Fira Sans';-inkscape-font-specification:'Fira Sans';stroke-width:0.26458332"
         id="path844" />
      <path
         d="m 91.800882,36.52766 h -1.532819 l -0.13582,-1.591027 q -0.582083,0.950736 -1.338791,1.397 -0.756709,0.426861 -1.843264,0.426861 -1.338792,0 -2.0955,-0.814917 -0.756709,-0.814917 -0.756709,-2.308931 v -7.33425 h 1.785056 v 7.140223 q 0,1.04775 0.368653,1.494014 0.368653,0.426861 1.202972,0.426861 1.494014,0 2.561167,-1.765653 v -7.295445 h 1.785055 z"
         style="font-style:normal;font-variant:normal;font-weight:normal;font-stretch:normal;font-size:19.40277863px;font-family:'Fira Sans';-inkscape-font-specification:'Fira Sans';stroke-width:0.26458332"
         id="path846" />
      <path
         d="m 98.188641,26.069563 q 1.04775,0 1.882069,0.291041 0.83432,0.291042 1.59103,0.873125 l -0.75671,1.125362 q -0.6985,-0.446264 -1.338792,-0.659695 -0.620889,-0.21343 -1.319389,-0.21343 -0.873125,0 -1.377597,0.368652 -0.504472,0.34925 -0.504472,0.970139 0,0.620889 0.465667,0.970139 0.485069,0.34925 1.726847,0.679097 1.707446,0.426862 2.541766,1.164167 0.85372,0.737306 0.85372,2.017889 0,1.513417 -1.18357,2.308931 -1.164166,0.795514 -2.852208,0.795514 -2.328333,0 -3.861153,-1.338792 l 0.950736,-1.086556 q 1.299987,0.989542 2.871612,0.989542 1.008944,0 1.591028,-0.407458 0.601485,-0.426861 0.601485,-1.144764 0,-0.523875 -0.21343,-0.83432 -0.21343,-0.329847 -0.737306,-0.56268 -0.523875,-0.252236 -1.532819,-0.523875 -1.629833,-0.426861 -2.367139,-1.144764 -0.717903,-0.717903 -0.717903,-1.823861 0,-0.795514 0.465667,-1.435806 0.485069,-0.659695 1.319389,-1.008945 0.853722,-0.368652 1.901472,-0.368652 z"
         style="font-style:normal;font-variant:normal;font-weight:normal;font-stretch:normal;font-size:19.40277863px;font-family:'Fira Sans';-inkscape-font-specification:'Fira Sans';stroke-width:0.26458332"
         id="path848" />
      <path
         d="m 109.63234,36.061994 q -1.00894,0.6985 -2.28953,0.6985 -1.29998,0 -2.03729,-0.737306 -0.7179,-0.756708 -0.7179,-2.173111 v -6.170084 h -1.78506 v -1.377597 h 1.78506 v -2.308931 l 1.78505,-0.21343 v 2.522361 h 2.42535 l -0.19403,1.377597 h -2.23132 v 6.092473 q 0,0.795514 0.27164,1.164167 0.29104,0.34925 0.95074,0.34925 0.60148,0 1.35819,-0.407459 z"
         style="font-style:normal;font-variant:normal;font-weight:normal;font-stretch:normal;font-size:19.40277863px;font-family:'Fira Sans';-inkscape-font-specification:'Fira Sans';stroke-width:0.26458332"
         id="path850" />
    </g>
    <path
       inkscape:connector-curvature="0"
       d="m 41.006898,16.063537 a 1.0807175,1.0807175 0 0 1 2.161435,0 1.0807175,1.0807175 0 0 1 -2.161435,0 m -12.892457,9.784871 a 1.0807173,1.0807173 0 0 1 2.161434,0 1.0807173,1.0807173 0 0 1 -2.161434,0 m 25.784565,0.05041 a 1.0807175,1.0807175 0 0 1 2.161435,0 1.0807175,1.0807175 0 0 1 -2.161435,0 m -22.656118,1.480603 c 0.497241,-0.220803 0.721869,-0.803583 0.501066,-1.301868 l -0.479508,-1.084194 h 1.885693 v 8.499695 h -3.804417 a 13.305549,13.305549 0 0 1 -0.430827,-5.079163 z m 7.888055,0.20898 V 25.08307 h 4.490471 c 0.231929,0 1.637765,0.268093 1.637765,1.319255 0,0.87278 -1.078283,1.185729 -1.964971,1.185729 z M 33.00027,41.077552 a 1.0807175,1.0807175 0 0 1 2.161435,0 1.0807175,1.0807175 0 0 1 -2.161435,0 m 16.012907,0.05041 a 1.0807175,1.0807175 0 0 1 2.161435,0 1.0807175,1.0807175 0 0 1 -2.161435,0 m 0.33416,-2.450739 c -0.532361,-0.114048 -1.056029,0.224629 -1.170081,0.758033 l -0.542445,2.531409 A 13.305549,13.305549 0 0 1 36.53868,41.913469 L 35.996584,39.382063 C 35.882531,38.849355 35.358863,38.509978 34.82685,38.624379 l -2.234804,0.479855 A 13.305549,13.305549 0 0 1 31.436568,37.74221 h 10.873937 c 0.12309,0 0.205155,-0.02225 0.205155,-0.13422 v -3.846492 c 0,-0.111971 -0.08206,-0.13422 -0.205155,-0.13422 h -3.180259 v -2.43822 h 3.439659 c 0.313991,0 1.678797,0.08971 2.115187,1.834229 0.136654,0.536534 0.436738,2.281746 0.641893,2.840534 0.20446,0.626593 1.036904,1.878389 1.923942,1.878389 h 5.614305 a 13.305549,13.305549 0 0 1 -1.232323,1.426352 z m 6.038178,-10.155892 a 13.305549,13.305549 0 0 1 0.02816,2.309913 h -1.365153 c -0.136654,0 -0.191593,0.08971 -0.191593,0.223585 v 0.62694 c 0,1.475729 -0.832097,1.796675 -1.561268,1.878391 -0.694399,0.07823 -1.464255,-0.290696 -1.559182,-0.715611 -0.409615,-2.304 -1.092192,-2.796026 -2.170128,-3.646204 1.337683,-0.849483 2.72961,-2.102669 2.72961,-3.780076 0,-1.81128 -1.241712,-2.952153 -2.088064,-3.511636 C 48.020433,21.123922 46.7057,20.9671 46.351024,20.9671 H 32.232502 a 13.305549,13.305549 0 0 1 7.444015,-4.201167 l 1.664194,1.745908 c 0.376234,0.393968 0.99935,0.408572 1.392969,0.03199 l 1.862048,-1.781028 a 13.305549,13.305549 0 0 1 9.108902,6.487433 l -1.274745,2.879131 c -0.220108,0.498285 0.0045,1.081065 0.501414,1.301868 z m 3.179213,0.04659 -0.04346,-0.445084 1.312994,-1.224674 c 0.26705,-0.248968 0.167255,-0.750035 -0.174208,-0.8773 L 57.9816,25.393242 57.850162,24.959981 58.89715,23.505812 c 0.213501,-0.295563 0.01739,-0.767421 -0.342157,-0.826533 l -1.769901,-0.287913 -0.212805,-0.397446 0.743776,-1.63255 c 0.152301,-0.332422 -0.130739,-0.757685 -0.496546,-0.743776 l -1.796328,0.06258 -0.28374,-0.344245 0.412745,-1.749732 C 55.235647,17.23083 54.87506,16.869895 54.51969,16.953348 l -1.749386,0.412397 -0.34494,-0.28374 0.06294,-1.796327 c 0.0139,-0.363717 -0.411703,-0.647805 -0.743428,-0.496894 l -1.632204,0.744123 -0.397444,-0.213152 -0.28861,-1.770249 C 49.3682,13.190658 48.895995,12.994543 48.600432,13.207348 l -1.455213,1.046988 -0.432564,-0.131094 -0.627637,-1.678798 c -0.127269,-0.342158 -0.62868,-0.440563 -0.876954,-0.174903 l -1.224673,1.314037 -0.445084,-0.04346 -0.9458,-1.528233 c -0.191247,-0.309473 -0.70344,-0.309473 -0.893992,0 l -0.945802,1.528233 -0.44543,0.04346 -1.225021,-1.314037 c -0.248274,-0.26566 -0.749688,-0.167255 -0.876953,0.174903 l -0.627637,1.678798 -0.432912,0.131094 -1.454866,-1.046988 c -0.295563,-0.2135 -0.768116,-0.01669 -0.826534,0.342158 l -0.288608,1.770249 -0.397445,0.213152 -1.632203,-0.744123 c -0.331727,-0.151606 -0.757338,0.133177 -0.743428,0.496894 l 0.06258,1.796327 -0.344939,0.28374 -1.749386,-0.412397 c -0.355371,-0.08276 -0.716304,0.277482 -0.632851,0.632853 l 0.412049,1.749732 -0.283045,0.344245 -1.796327,-0.06258 c -0.362326,-0.01038 -0.647805,0.411354 -0.496894,0.743776 l 0.744123,1.63255 -0.213153,0.397446 -1.7699,0.287913 c -0.359545,0.05842 -0.554268,0.53097 -0.342158,0.826533 l 1.046988,1.454169 -0.131439,0.433261 -1.678797,0.627637 c -0.340767,0.127269 -0.440563,0.628332 -0.174208,0.877299 l 1.313342,1.224675 -0.04346,0.445083 -1.527887,0.945801 c -0.309471,0.191247 -0.309471,0.70344 0,0.893991 l 1.527887,0.945802 0.04346,0.445083 -1.313342,1.225021 c -0.266355,0.248274 -0.166559,0.748992 0.174208,0.876954 l 1.678797,0.627637 0.131439,0.433259 -1.046988,1.454517 c -0.212806,0.296259 -0.01703,0.768465 0.342505,0.826186 l 1.769553,0.287913 0.213153,0.398141 -0.744123,1.631856 c -0.151606,0.331725 0.134568,0.758379 0.496894,0.743775 l 1.795631,-0.06294 0.283741,0.34494 -0.412049,1.750081 c -0.08345,0.354675 0.27748,0.714914 0.632851,0.631461 l 1.749386,-0.412049 0.344939,0.283045 -0.06258,1.796675 c -0.0139,0.363716 0.411701,0.648152 0.743428,0.496546 l 1.632203,-0.743776 0.397445,0.213153 0.288608,1.769206 c 0.05842,0.360238 0.530971,0.554962 0.826534,0.342852 l 1.454169,-1.047684 0.433261,0.131786 0.627637,1.678102 c 0.127269,0.340767 0.62868,0.441259 0.876952,0.17421 l 1.225022,-1.313344 0.445432,0.04451 0.9458,1.527887 c 0.190552,0.308081 0.702745,0.308776 0.893992,0 l 0.945801,-1.527887 0.445083,-0.04451 1.224674,1.313344 c 0.248272,0.267049 0.749687,0.166557 0.876953,-0.17421 l 0.627636,-1.678102 0.433261,-0.131786 1.454518,1.047684 c 0.295563,0.21211 0.767768,0.01669 0.826185,-0.342852 l 0.288608,-1.769206 0.397446,-0.213153 1.632203,0.743776 c 0.331725,0.151606 0.75664,-0.132135 0.743427,-0.496546 l -0.0626,-1.796675 0.344591,-0.283045 1.749386,0.412049 c 0.355371,0.08345 0.715957,-0.276786 0.632504,-0.631461 l -0.412049,-1.750081 0.283045,-0.34494 1.796327,0.06294 c 0.362326,0.0146 0.648848,-0.41205 0.496546,-0.743775 l -0.743776,-1.631856 0.212805,-0.398141 1.769902,-0.287913 c 0.360239,-0.05772 0.555658,-0.529927 0.342158,-0.826186 l -1.046989,-1.454517 0.131439,-0.433259 1.678449,-0.627637 c 0.341462,-0.127966 0.441259,-0.62868 0.174209,-0.876954 l -1.312995,-1.225021 0.04346,-0.445083 1.527886,-0.945802 c 0.309472,-0.190551 0.30982,-0.702744 3.49e-4,-0.893991 z"
       id="path4638"
       style="stroke-width:0.34772113" />
  </g>
</svg>
